<?xml version="1.0" standalone="no"?>
<!DOCTYPE svg PUBLIC "-//W3C//DTD SVG 20010904//EN"
 "http://www.w3.org/TR/2001/REC-SVG-20010904/DTD/svg10.dtd">
<svg version="1.0" xmlns="http://www.w3.org/2000/svg"
 width="300.000000pt" height="300.000000pt" viewBox="0 0 300.000000 300.000000"
 preserveAspectRatio="xMidYMid meet">
<metadata>
Created by potrace 1.11, written by Peter Selinger 2001-2013
</metadata>
<g transform="translate(0.000000,300.000000) scale(0.100000,-0.100000)"
fill="#000000" stroke="none">
<path d="M937 2834 c-1 -1 -22 -4 -47 -7 -79 -10 -222 -69 -251 -103 -6 -8
-15 -14 -20 -14 -33 0 -189 -210 -189 -254 0 -9 -5 -16 -11 -16 -5 0 -8 -4 -5
-9 3 -5 -1 -31 -9 -57 -8 -27 -15 -59 -15 -72 0 -16 -4 -21 -12 -16 -10 6 -10
5 -1 -7 10 -12 10 -18 0 -29 -10 -10 -9 -11 2 -5 11 6 13 4 7 -11 -10 -25 -14
-74 -6 -79 8 -5 5 -79 -5 -95 -5 -8 -4 -11 2 -7 6 4 13 -11 17 -36 3 -23 9
-53 12 -66 6 -18 4 -22 -6 -16 -7 4 -2 -7 11 -24 18 -25 21 -34 10 -40 -10 -7
-9 -9 3 -14 9 -4 24 -23 33 -44 16 -35 63 -105 95 -143 7 -8 13 -18 13 -21 0
-4 4 -11 9 -16 5 -5 6 -3 2 5 -12 20 9 13 32 -11 12 -13 19 -26 16 -30 -4 -3
2 -5 13 -3 26 5 83 -31 77 -49 -6 -14 12 -15 35 -1 8 5 16 4 21 -4 4 -6 10
-11 14 -11 19 3 25 -1 29 -16 4 -16 5 -16 6 1 1 14 6 17 24 11 12 -4 37 -8 55
-9 17 -2 35 -6 40 -11 4 -5 2 -6 -3 -2 -6 3 -17 1 -25 -4 -12 -7 -11 -8 5 -6
11 1 25 6 31 9 5 4 58 8 116 10 67 2 104 7 100 13 -3 5 3 3 13 -5 13 -10 16
-11 11 -2 -6 10 -3 13 10 12 11 -1 22 -1 27 0 4 1 12 4 17 5 6 1 11 3 13 4 1
2 13 4 26 7 14 2 30 9 36 14 7 6 24 11 38 12 14 1 23 6 21 10 -3 4 -1 8 4 8
21 0 20 32 -3 97 -42 122 -44 126 -58 115 -23 -18 -140 -53 -202 -61 -74 -9
-174 -5 -224 9 -57 15 -127 65 -165 117 -51 70 -103 253 -72 253 7 0 7 3 1 8
-16 11 -17 33 -3 50 11 13 11 14 0 8 -11 -7 -13 0 -8 30 3 22 5 52 6 67 0 16
3 26 8 24 4 -3 8 11 9 30 1 19 7 41 14 49 6 8 9 14 5 14 -15 0 29 65 72 110
48 48 76 65 101 61 7 -1 10 2 7 7 -3 5 3 12 14 15 11 3 18 1 14 -4 -10 -16 9
-9 22 9 13 16 13 16 14 -3 0 -16 2 -17 10 -5 11 18 63 25 54 7 -3 -7 1 -4 9 5
8 10 17 15 20 11 4 -3 20 -6 36 -5 24 0 29 -3 24 -16 -4 -13 -2 -12 11 3 17
20 17 20 12 -5 -4 -22 -4 -23 8 -7 10 13 21 15 45 11 17 -4 31 -9 31 -13 0 -4
12 -8 27 -9 15 -1 29 -5 32 -10 7 -8 28 -14 54 -16 15 -1 26 19 52 97 l33 98
-47 23 c-50 26 -130 50 -201 62 -41 6 -197 13 -203 8z"/>
<path d="M1962 2782 c-16 -24 -54 -99 -57 -112 -7 -31 -18 -49 -27 -44 -7 4
-8 2 -4 -4 4 -6 -3 -33 -15 -59 -40 -89 -47 -108 -54 -131 -4 -12 -11 -19 -17
-16 -6 4 -8 3 -5 -3 7 -11 -22 -94 -36 -104 -5 -3 -8 -9 -8 -13 3 -20 0 -26
-9 -21 -5 3 -7 0 -4 -8 3 -8 -6 -41 -19 -73 -36 -89 -40 -99 -41 -104 -1 -5
-19 -50 -67 -174 -10 -27 -19 -55 -19 -62 0 -8 -4 -14 -8 -14 -4 0 -9 -8 -9
-17 -1 -10 -16 -54 -33 -98 -17 -44 -33 -91 -36 -105 -3 -14 -9 -29 -15 -35
-13 -13 -11 -45 4 -46 15 -1 205 -1 230 0 9 1 17 8 17 17 0 14 2 15 18 3 15
-13 16 -12 4 3 -15 19 -6 72 11 61 5 -3 7 -2 4 4 -8 13 33 134 44 128 4 -3 11
0 15 6 4 8 3 9 -4 5 -22 -14 -12 23 11 40 15 11 16 15 5 11 -10 -4 -18 -2 -18
3 0 6 37 10 86 10 65 0 84 -3 78 -12 -5 -10 -4 -10 6 -1 11 10 17 10 29 0 10
-8 13 -9 8 0 -5 8 20 11 98 11 58 0 103 -3 101 -7 -3 -4 1 -8 9 -8 8 0 12 4 9
9 -3 4 4 8 15 8 12 0 21 -5 21 -12 0 -6 7 -3 15 8 9 12 14 14 15 6 0 -7 3 -11
8 -9 8 6 26 -13 30 -31 1 -7 3 -18 5 -24 1 -7 5 -15 8 -18 3 -3 13 -26 21 -51
12 -36 13 -50 5 -59 -9 -8 -7 -9 7 -4 16 6 18 4 13 -9 -3 -9 -2 -17 4 -17 6 0
7 -4 4 -10 -3 -5 -1 -10 5 -10 6 0 10 -8 8 -17 -3 -17 30 -53 49 -53 4 0 2 4
-6 9 -8 5 39 8 116 7 l129 -1 -14 28 c-8 16 -15 39 -16 52 0 13 -3 21 -5 19
-3 -2 -24 51 -48 118 -24 68 -48 131 -54 141 -5 10 -7 22 -4 27 4 6 2 10 -2
10 -5 0 -17 26 -28 58 -10 31 -22 64 -27 72 -4 8 -35 85 -68 170 -34 85 -70
174 -81 197 -10 24 -19 45 -19 48 0 2 -12 30 -26 62 -25 57 -33 75 -93 205
l-31 67 -110 0 c-108 -1 -110 -1 -128 -27z m129 -284 c1 -7 1 -19 0 -27 -2 -8
2 -10 10 -5 9 5 11 1 7 -14 -4 -12 -2 -20 2 -17 11 7 32 -54 23 -68 -3 -5 -2
-7 4 -4 5 4 16 -11 23 -33 11 -33 11 -42 -1 -57 -13 -16 -12 -17 3 -4 15 11
19 11 24 -5 3 -11 10 -27 15 -37 5 -10 7 -22 4 -27 -4 -6 -1 -10 5 -10 7 0 10
-7 6 -15 -3 -8 0 -15 5 -15 7 0 9 -11 7 -25 -3 -13 -1 -23 5 -22 5 1 15 -14
22 -35 13 -35 13 -36 -11 -33 -14 1 -26 0 -28 -4 -4 -6 -229 -6 -292 0 l-32 3
24 53 c13 29 23 56 24 58 0 3 0 10 0 16 0 8 6 7 17 -2 15 -13 15 -12 2 9 -12
19 -12 24 -1 31 8 4 13 11 12 15 -4 18 14 67 28 76 14 8 14 9 2 10 -12 0 -12
2 -2 9 8 4 13 11 13 15 -4 25 0 36 11 30 7 -5 8 -3 4 5 -5 7 0 19 10 27 11 9
14 13 7 10 -7 -4 -9 1 -6 14 3 11 10 17 15 14 5 -3 8 0 7 7 -5 22 10 69 21 69
6 0 11 -6 11 -12z"/>
<path d="M2070 2461 c0 -6 4 -13 10 -16 6 -3 7 1 4 9 -7 18 -14 21 -14 7z"/>
<path d="M2113 2335 c0 -8 4 -12 9 -9 5 3 6 10 3 15 -9 13 -12 11 -12 -6z"/>
<path d="M1354 2609 c-3 -6 -2 -15 3 -20 5 -5 9 -1 9 11 0 23 -2 24 -12 9z"/>
<path d="M1000 2580 c-9 -6 -10 -10 -3 -10 6 0 15 5 18 10 8 12 4 12 -15 0z"/>
<path d="M1055 2580 c-3 -5 -1 -10 4 -10 6 0 11 5 11 10 0 6 -2 10 -4 10 -3 0
-8 -4 -11 -10z"/>
<path d="M1154 2562 c4 -3 14 -7 22 -8 9 -1 13 0 10 4 -4 3 -14 7 -22 8 -9 1
-13 0 -10 -4z"/>
<path d="M1206 2557 c3 -10 9 -15 12 -12 3 3 0 11 -7 18 -10 9 -11 8 -5 -6z"/>
<path d="M965 2537 c-109 -36 -189 -105 -238 -207 -29 -59 -32 -73 -32 -160 0
-81 4 -103 27 -152 110 -237 407 -300 601 -128 128 113 163 304 84 456 -30 58
-109 135 -171 166 -51 26 -75 31 -146 34 -53 3 -100 -1 -125 -9z"/>
<path d="M796 2527 c3 -10 9 -15 12 -12 3 3 0 11 -7 18 -10 9 -11 8 -5 -6z"/>
<path d="M440 1810 c6 -11 13 -20 16 -20 2 0 0 9 -6 20 -6 11 -13 20 -16 20
-2 0 0 -9 6 -20z"/>
<path d="M1857 1807 c-3 -8 1 -14 8 -14 7 0 11 6 8 14 -3 7 -6 13 -8 13 -2 0
-5 -6 -8 -13z"/>
<path d="M1910 1816 c0 -2 8 -10 18 -17 15 -13 16 -12 3 4 -13 16 -21 21 -21
13z"/>
<path d="M1940 1816 c0 -2 7 -7 16 -10 8 -3 12 -2 9 4 -6 10 -25 14 -25 6z"/>
<path d="M2181 1817 c2 -1 13 -9 24 -17 19 -14 19 -14 6 3 -7 9 -18 17 -24 17
-6 0 -8 -1 -6 -3z"/>
<path d="M2300 1799 c0 -5 5 -7 10 -4 6 3 10 8 10 11 0 2 -4 4 -10 4 -5 0 -10
-5 -10 -11z"/>
<path d="M2315 1780 c-3 -5 -1 -10 4 -10 6 0 11 5 11 10 0 6 -2 10 -4 10 -3 0
-8 -4 -11 -10z"/>
<path d="M2340 1726 c0 -2 8 -10 18 -17 15 -13 16 -12 3 4 -13 16 -21 21 -21
13z"/>
<path d="M590 1625 c0 -5 5 -17 10 -25 5 -8 10 -10 10 -5 0 6 -5 17 -10 25 -5
8 -10 11 -10 5z"/>
<path d="M670 1569 c0 -5 -6 -7 -12 -3 -7 4 -9 3 -5 -1 13 -15 36 -14 30 1 -6
17 -13 18 -13 3z"/>
<path d="M1310 1536 c0 -2 8 -10 18 -17 15 -13 16 -12 3 4 -13 16 -21 21 -21
13z"/>
<path d="M750 1520 c0 -5 5 -10 11 -10 5 0 7 5 4 10 -3 6 -8 10 -11 10 -2 0
-4 -4 -4 -10z"/>
<path d="M1526 1522 c-3 -5 1 -9 9 -9 8 0 15 4 15 9 0 4 -4 8 -9 8 -6 0 -12
-4 -15 -8z"/>
<path d="M1565 1520 c3 -5 8 -10 11 -10 2 0 4 5 4 10 0 6 -5 10 -11 10 -5 0
-7 -4 -4 -10z"/>
<path d="M1610 1510 c6 -11 13 -20 16 -20 2 0 0 9 -6 20 -6 11 -13 20 -16 20
-2 0 0 -9 6 -20z"/>
<path d="M1710 1519 c0 -5 5 -7 10 -4 6 3 10 8 10 11 0 2 -4 4 -10 4 -5 0 -10
-5 -10 -11z"/>
<path d="M2586 1522 c-2 -4 4 -8 14 -8 10 0 16 4 14 8 -3 4 -9 8 -14 8 -5 0
-11 -4 -14 -8z"/>
<path d="M2635 1521 c-3 -5 -2 -12 3 -15 5 -3 9 1 9 9 0 17 -3 19 -12 6z"/>
<path d="M830 1516 c0 -3 9 -10 20 -16 11 -6 20 -8 20 -6 0 3 -9 10 -20 16
-11 6 -20 8 -20 6z"/>
<path d="M2528 1513 c6 -2 9 -10 6 -15 -4 -7 -2 -8 5 -4 13 9 5 26 -12 25 -9
0 -8 -2 1 -6z"/>
<path d="M1110 1500 c0 -5 5 -10 10 -10 6 0 10 5 10 10 0 6 -4 10 -10 10 -5 0
-10 -4 -10 -10z"/>
<path d="M988 1493 c7 -3 16 -2 19 1 4 3 -2 6 -13 5 -11 0 -14 -3 -6 -6z"/>
<path d="M1070 1491 c0 -7 -5 -9 -12 -5 -7 5 -8 3 -3 -5 5 -9 10 -10 18 -2 6
6 8 14 4 18 -4 3 -7 1 -7 -6z"/>
<path d="M847 1479 c7 -7 15 -10 18 -7 3 3 -2 9 -12 12 -14 6 -15 5 -6 -5z"/>
<path d="M946 1482 c-3 -5 1 -9 9 -9 8 0 15 4 15 9 0 4 -4 8 -9 8 -6 0 -12 -4
-15 -8z"/>
<path d="M2605 1480 c-3 -6 1 -7 9 -4 18 7 21 14 7 14 -6 0 -13 -4 -16 -10z"/>
<path d="M695 1444 c-16 -2 -60 -9 -97 -15 l-68 -11 0 -129 c0 -90 -3 -128
-11 -124 -6 4 -5 -2 3 -14 11 -17 11 -25 0 -42 -8 -12 -9 -18 -3 -14 17 10 15
-657 -1 -674 -11 -11 -10 -12 0 -7 10 6 13 -17 11 -115 -1 -112 0 -124 17
-130 11 -3 25 -4 33 -1 8 3 12 1 8 -5 -3 -5 0 -10 8 -10 8 0 12 3 10 7 -2 4
10 7 28 6 24 -1 32 -5 31 -18 -1 -10 3 -15 8 -12 5 3 7 12 4 19 -6 16 46 17
56 1 6 -8 8 -7 8 2 0 18 21 15 36 -6 12 -15 12 -13 4 16 -11 40 -11 44 2 59 7
9 7 13 -1 13 -7 0 -9 5 -5 11 6 11 6 183 0 224 -2 11 1 26 7 33 5 7 5 12 0 12
-15 0 -2 74 15 86 9 6 25 10 36 7 20 -3 20 -3 1 6 -12 5 -25 5 -32 -1 -13 -11
-36 -1 -28 12 9 15 129 8 143 -9 11 -15 12 -15 7 0 -10 28 25 17 48 -15 12
-17 27 -37 34 -44 6 -6 15 -21 18 -32 3 -11 11 -20 16 -20 5 0 9 -10 9 -22 0
-19 2 -20 10 -8 9 13 10 13 10 0 0 -9 -6 -22 -12 -30 -11 -12 -10 -12 3 -2 14
10 22 2 58 -54 23 -36 40 -72 37 -79 -3 -10 0 -12 11 -8 11 4 14 2 9 -5 -4 -7
-2 -12 4 -12 6 0 8 -4 5 -10 -3 -5 -2 -10 4 -10 6 0 19 -17 30 -39 16 -29 17
-41 8 -50 -9 -10 -8 -11 7 -5 13 5 17 4 12 -4 -5 -8 -2 -10 9 -5 10 3 21 0 26
-8 6 -9 9 -10 9 -2 0 6 9 11 20 10 11 -1 20 -5 20 -9 0 -4 5 -8 11 -8 5 0 8 4
5 8 -3 5 8 9 24 10 23 0 28 -3 25 -19 -2 -10 1 -19 6 -19 5 0 9 8 7 18 -3 15
6 17 59 17 58 0 62 1 57 20 -10 31 -71 142 -120 220 -24 39 -47 77 -51 85 -4
8 -9 17 -13 20 -18 15 -50 71 -45 79 3 5 0 13 -6 17 -8 5 -9 3 -4 -7 12 -21
-7 0 -38 43 -27 36 -36 65 -17 53 5 -3 19 4 32 17 14 14 23 17 26 10 2 -7 8
-12 13 -12 4 0 6 7 3 15 -4 10 0 15 12 15 9 0 14 3 11 6 -8 8 36 44 53 44 6 0
9 4 5 10 -3 5 5 26 18 47 34 56 45 103 45 195 0 158 -63 265 -198 337 -97 52
-158 63 -350 66 -96 1 -188 1 -205 -1z m244 -226 c1 9 10 11 34 7 17 -4 41 -6
52 -6 10 0 25 -5 32 -11 7 -6 13 -7 13 -4 0 4 14 -1 30 -11 17 -9 30 -23 30
-30 0 -6 4 -15 10 -18 6 -4 7 1 4 12 -4 11 1 9 12 -7 10 -14 20 -29 21 -35 1
-5 5 -21 9 -34 6 -19 4 -22 -7 -16 -11 6 -12 5 -1 -6 14 -15 16 -79 2 -79 -5
0 -7 -6 -4 -13 7 -19 -47 -74 -89 -92 -44 -18 -127 -29 -217 -28 -106 2 -101
0 -90 28 6 16 6 25 -1 25 -6 0 -6 7 1 20 8 14 8 20 0 20 -7 0 -8 6 -1 18 6 10
6 24 1 32 -5 8 -6 19 -2 25 9 15 11 35 3 35 -9 0 -7 42 3 58 4 7 4 12 -1 12
-4 0 -7 20 -5 44 3 39 6 43 25 40 21 -4 21 -4 0 5 -13 6 -23 12 -23 14 0 2 28
4 63 4 41 1 55 -2 42 -8 -17 -7 -16 -7 7 -6 15 1 26 4 26 7 -2 19 5 22 12 5 5
-11 9 -14 9 -7z"/>
<path d="M842 1204 c10 -10 20 -16 22 -13 3 3 -5 11 -17 18 -21 13 -21 12 -5
-5z"/>
<path d="M1024 1199 c-4 -7 -3 -9 4 -5 5 3 13 0 15 -6 4 -9 6 -10 6 -1 1 17
-16 25 -25 12z"/>
<path d="M1066 1183 c-6 -14 -5 -15 5 -6 7 7 10 15 7 18 -3 3 -9 -2 -12 -12z"/>
<path d="M806 1178 c3 -5 10 -6 15 -3 13 9 11 12 -6 12 -8 0 -12 -4 -9 -9z"/>
<path d="M1090 1162 c0 -5 7 -9 15 -9 8 0 12 4 9 9 -3 4 -9 8 -15 8 -5 0 -9
-4 -9 -8z"/>
<path d="M1150 1119 c0 -5 5 -7 10 -4 6 3 10 8 10 11 0 2 -4 4 -10 4 -5 0 -10
-5 -10 -11z"/>
<path d="M1679 1416 c-1 -11 -1 -38 -1 -59 1 -27 -2 -36 -11 -30 -9 5 -9 3 -1
-8 16 -20 16 -578 0 -598 -8 -11 -8 -13 0 -8 16 9 15 -132 0 -152 -8 -11 -8
-13 0 -8 8 5 11 -46 11 -182 0 -104 3 -194 7 -199 4 -6 14 -8 23 -5 12 5 15 2
10 -10 -3 -9 -1 -19 5 -23 6 -4 8 -3 5 2 -3 6 -2 16 3 24 7 12 11 12 26 -1 14
-11 16 -11 10 0 -6 9 -5 12 5 9 8 -3 13 -12 13 -21 -1 -9 3 -14 8 -11 5 3 7
13 4 21 -4 9 -1 13 6 10 7 -2 12 -13 10 -23 -2 -15 -1 -16 7 -4 5 8 7 18 4 23
-3 5 5 7 18 5 16 -2 24 -9 23 -20 -1 -10 3 -15 8 -12 5 3 7 13 4 21 -4 9 -1
13 6 10 7 -2 12 -13 10 -23 -2 -15 -1 -16 7 -4 5 8 7 18 5 22 -3 4 2 8 11 8
10 0 13 -5 9 -12 -6 -10 -5 -10 7 -1 18 14 111 14 121 -1 5 -8 8 -7 8 2 0 6 5
12 11 12 5 0 7 -6 3 -12 -6 -10 -4 -10 7 -1 16 15 43 17 34 3 -3 -5 -1 -10 4
-10 6 0 11 4 11 8 0 13 154 11 162 -2 5 -8 8 -7 8 2 0 6 5 12 11 12 5 0 7 -6
3 -12 -6 -10 -4 -10 7 0 16 14 43 16 34 2 -3 -5 -1 -10 4 -10 6 0 11 4 11 8 0
5 27 9 60 9 41 0 58 -3 53 -11 -3 -6 0 -5 8 2 7 6 23 12 35 12 21 0 22 4 20
99 0 55 -4 103 -8 107 -5 4 -142 7 -307 7 l-299 0 -1 168 c-1 142 1 168 14
173 9 3 13 2 10 -4 -3 -6 -1 -10 4 -10 6 0 11 3 11 8 0 9 69 8 92 -3 10 -4 15
-12 11 -18 -3 -6 -1 -7 6 -3 9 6 9 11 1 21 -8 10 -4 12 20 11 19 0 30 -6 31
-16 0 -10 3 -9 9 5 6 14 9 16 10 5 2 -8 2 -19 1 -23 -1 -5 3 -6 8 -2 6 3 8 13
5 23 -5 14 -3 14 10 -2 16 -20 16 -20 16 0 0 16 2 17 10 4 7 -11 10 -11 10 -2
0 10 5 10 20 2 11 -6 20 -7 20 -2 0 5 20 8 45 8 25 -1 45 -4 45 -8 0 -5 5 -8
11 -8 5 0 7 5 4 10 -3 6 -1 10 4 10 6 0 11 -6 11 -12 0 -9 4 -8 10 2 6 10 10
11 10 3 0 -7 5 -13 11 -13 5 0 7 5 3 12 -4 6 -3 8 2 5 18 -11 34 9 35 44 1 19
1 64 0 100 l-1 67 -227 0 c-126 0 -240 1 -255 1 l-27 1 2 110 c1 66 -2 112 -8
114 -5 3 -4 5 3 5 8 1 10 9 6 25 -3 14 -1 27 6 31 9 5 10 1 6 -16 -3 -13 -3
-18 0 -11 3 6 11 9 16 6 7 -5 8 -2 3 6 -6 9 -4 12 7 8 8 -4 21 -2 28 2 7 5 23
4 35 0 14 -5 27 -4 34 3 15 15 14 -5 -1 -23 -7 -7 0 -4 16 8 19 15 33 19 40
13 7 -6 18 -6 26 -1 7 4 23 4 36 0 12 -5 25 -6 29 -2 13 13 30 8 43 -13 9 -13
12 -14 8 -3 -3 10 2 18 15 21 16 4 19 2 13 -16 -6 -21 -5 -21 11 2 12 15 20
19 25 12 5 -9 14 -9 35 -1 24 9 27 8 23 -8 -3 -11 0 -19 7 -19 8 0 11 7 7 16
-3 9 -2 13 3 9 4 -4 14 -3 22 4 12 9 13 6 9 -16 -3 -15 -1 -24 5 -21 5 4 7 10
4 15 -3 4 3 14 12 21 14 12 16 12 8 -1 -7 -13 -6 -13 7 -2 10 8 17 9 20 2 1
-5 9 -1 16 11 8 12 9 18 3 15 -7 -5 -10 19 -8 76 2 46 2 90 -1 99 -3 15 -43
17 -413 17 l-409 -1 -1 -21z"/>
<path d="M2010 1202 c0 -4 10 -9 22 -9 18 -2 20 0 8 7 -18 12 -30 13 -30 2z"/>
<path d="M2097 1195 c-4 -8 -1 -17 6 -21 7 -4 9 -4 5 1 -4 4 -3 14 3 22 7 8 8
13 1 13 -5 0 -12 -7 -15 -15z"/>
<path d="M2177 1195 c-4 -8 -3 -16 1 -19 4 -3 9 4 9 15 2 23 -3 25 -10 4z"/>
<path d="M2219 1208 c-6 -21 -5 -37 2 -32 5 3 6 10 3 16 -5 8 -1 9 10 5 10 -4
15 -3 11 3 -5 9 -24 14 -26 8z"/>
<path d="M1973 695 c-3 -9 -3 -18 -1 -21 3 -3 8 4 11 16 6 23 -1 27 -10 5z"/>
<path d="M2268 703 c7 -3 16 -2 19 1 4 3 -2 6 -13 5 -11 0 -14 -3 -6 -6z"/>
<path d="M1290 696 c0 -2 8 -10 18 -17 15 -13 16 -12 3 4 -13 16 -21 21 -21
13z"/>
<path d="M1941 684 c0 -11 3 -14 6 -6 3 7 2 16 -1 19 -3 4 -6 -2 -5 -13z"/>
<path d="M1255 680 c-3 -6 1 -7 9 -4 18 7 21 14 7 14 -6 0 -13 -4 -16 -10z"/>
<path d="M1996 678 c3 -5 10 -6 15 -3 13 9 11 12 -6 12 -8 0 -12 -4 -9 -9z"/>
<path d="M2090 680 c0 -5 5 -10 11 -10 5 0 7 5 4 10 -3 6 -8 10 -11 10 -2 0
-4 -4 -4 -10z"/>
<path d="M2256 678 c3 -5 10 -6 15 -3 13 9 11 12 -6 12 -8 0 -12 -4 -9 -9z"/>
<path d="M940 620 c0 -5 5 -10 11 -10 5 0 7 5 4 10 -3 6 -8 10 -11 10 -2 0 -4
-4 -4 -10z"/>
<path d="M860 616 c0 -2 7 -7 16 -10 8 -3 12 -2 9 4 -6 10 -25 14 -25 6z"/>
<path d="M990 536 c0 -2 8 -10 18 -17 15 -13 16 -12 3 4 -13 16 -21 21 -21 13z"/>
<path d="M1095 381 c-3 -7 -1 -10 6 -9 7 2 13 -2 14 -9 0 -6 3 -14 7 -18 3 -4
5 0 4 9 -3 24 -22 40 -31 27z"/>
<path d="M630 150 c-13 -8 -12 -10 3 -10 9 0 17 5 17 10 0 12 -1 12 -20 0z"/>
<path d="M1836 143 c-6 -14 -5 -15 5 -6 7 7 10 15 7 18 -3 3 -9 -2 -12 -12z"/>
<path d="M1951 151 c-10 -7 -7 -9 12 -8 14 1 23 5 20 10 -6 9 -15 9 -32 -2z"/>
<path d="M2191 151 c-10 -7 -7 -9 12 -8 14 1 23 5 20 10 -6 9 -15 9 -32 -2z"/>
<path d="M2431 151 c-10 -7 -7 -9 12 -8 14 1 23 5 20 10 -6 9 -15 9 -32 -2z"/>
<path d="M2515 149 c-4 -6 -5 -12 -2 -15 2 -3 7 2 10 11 7 17 1 20 -8 4z"/>
<path d="M1307 139 c7 -7 15 -10 18 -7 3 3 -2 9 -12 12 -14 6 -15 5 -6 -5z"/>
<path d="M1440 140 c-9 -6 -10 -10 -3 -10 6 0 15 5 18 10 8 12 4 12 -15 0z"/>
<path d="M2135 140 c-3 -5 -1 -10 4 -10 6 0 11 5 11 10 0 6 -2 10 -4 10 -3 0
-8 -4 -11 -10z"/>
<path d="M2375 141 c-3 -5 -2 -12 3 -15 5 -3 9 1 9 9 0 17 -3 19 -12 6z"/>
<path d="M1950 120 c0 -5 5 -10 11 -10 5 0 7 5 4 10 -3 6 -8 10 -11 10 -2 0
-4 -4 -4 -10z"/>
</g>
</svg>
